<svg xmlns="http://www.w3.org/2000/svg" xmlns:xlink="http://www.w3.org/1999/xlink" width="500" zoomAndPan="magnify" viewBox="0 0 375 374.999991" height="500" preserveAspectRatio="xMidYMid meet" version="1.0"><defs><clipPath id="321cf0bad2"><path d="M 32.292969 13.335938 L 351.824219 13.335938 L 351.824219 356 L 32.292969 356 Z M 32.292969 13.335938 " clip-rule="nonzero"/></clipPath><clipPath id="61ae472d4b"><path d="M 23.238281 16.820312 L 344.425781 16.820312 L 344.425781 361.320312 L 23.238281 361.320312 Z M 23.238281 16.820312 " clip-rule="nonzero"/></clipPath></defs><path fill="#ffffff" d="M 190.511719 314.835938 C 182.046875 308.835938 173.871094 302.511719 167.644531 294.207031 C 152.785156 274.382812 144.777344 250.039062 141.597656 225.46875 C 138.417969 200.894531 139.84375 175.957031 142.378906 151.308594 C 143.078125 144.492188 148.039062 139.121094 153.875 135.535156 C 159.714844 131.949219 166.523438 130.296875 173.277344 129.144531 C 185.90625 126.984375 198.804688 126.378906 211.582031 127.347656 C 211.28125 130.667969 211.894531 134.164062 212.09375 137.492188 C 215.117188 137.238281 218.144531 137.007812 221.175781 136.796875 C 221.183594 136.855469 221.1875 136.910156 221.195312 136.96875 C 221.539062 139.058594 222.007812 141.363281 223.71875 142.609375 C 224.5 143.175781 225.453125 143.445312 226.394531 143.660156 C 230.328125 144.5625 234.402344 144.664062 238.4375 144.761719 C 243.195312 144.882812 247.957031 145 252.71875 145.117188 C 252.703125 145.207031 252.691406 145.300781 252.679688 145.386719 C 251.277344 155.664062 253.128906 166.097656 252.785156 176.464844 C 252.667969 180.003906 252.324219 183.667969 252.03125 187.359375 C 249.824219 187.4375 247.621094 187.535156 245.414062 187.648438 C 223.511719 188.800781 202.707031 187.234375 181.042969 192.746094 C 179.402344 193.160156 177.683594 193.652344 176.511719 194.875 C 175.414062 196.019531 174.976562 197.636719 174.679688 199.199219 C 173.28125 206.554688 174.152344 214.128906 175.027344 221.5625 C 176.84375 236.980469 178.660156 252.402344 180.476562 267.820312 C 182.0625 281.292969 183.972656 295.558594 192.53125 306.085938 C 195.929688 310.261719 200.226562 313.632812 204.769531 316.519531 C 206.320312 317.507812 207.902344 318.421875 209.507812 319.292969 C 202.75 319.335938 195.929688 318.675781 190.511719 314.835938 Z M 337.359375 337.75 C 331.914062 329.671875 322.917969 324.515625 313.542969 321.886719 C 307.671875 320.234375 301.617188 319.480469 295.519531 319.089844 C 297.351562 318.164062 299.152344 317.183594 300.914062 316.136719 C 305.644531 313.339844 310.195312 310.121094 313.808594 305.976562 C 317.707031 301.503906 320.378906 296.09375 322.554688 290.570312 C 333.640625 262.429688 332.449219 231.164062 331.097656 200.945312 C 331.027344 199.355469 330.945312 197.722656 330.289062 196.273438 C 328.582031 192.496094 323.828125 191.390625 319.71875 190.820312 C 300.152344 188.105469 280.375 186.882812 260.625 187.148438 C 260.789062 173.320312 261.175781 159.492188 261.792969 145.679688 C 261.796875 145.570312 261.789062 145.453125 261.789062 145.339844 C 263.429688 145.382812 265.070312 145.421875 266.710938 145.460938 C 271.433594 145.578125 276.152344 145.695312 280.871094 145.8125 C 283.726562 145.882812 286.84375 145.871094 289.074219 144.089844 C 291.464844 142.1875 292.085938 138.644531 292.550781 135.628906 C 296.664062 135.78125 300.777344 135.972656 304.890625 136.203125 C 304.460938 122.464844 304.523438 109.320312 304.097656 95.582031 C 303.949219 90.898438 303.804688 86.207031 303.230469 81.554688 C 302.796875 78.070312 302.125 74.617188 301.453125 71.167969 C 300.644531 67.042969 299.84375 62.921875 299.039062 58.792969 C 298.175781 54.351562 296.835938 49.988281 294.378906 46.183594 C 288.246094 36.691406 280.648438 28.144531 267.164062 23.203125 C 258.636719 20.082031 249.433594 18.726562 236.390625 18.414062 C 209.257812 17.753906 186.585938 17.914062 159.453125 18.570312 C 151.484375 18.761719 143.53125 19.433594 135.5625 19.605469 C 114.058594 20.066406 92.132812 17.90625 70.988281 21.84375 C 52.863281 25.21875 37.921875 40.289062 33.035156 58.066406 C 28.148438 75.839844 32.761719 95.570312 43.621094 110.464844 C 47.289062 115.507812 53.492188 118.21875 59.484375 119.925781 C 64.472656 121.347656 69.71875 121.652344 74.734375 122.972656 C 79.75 124.289062 84.792969 126.90625 87.226562 131.480469 C 89.503906 135.753906 86.964844 139.378906 86.121094 144.144531 C 78.75 185.683594 71.382812 227.226562 64.015625 268.769531 C 62.519531 277.203125 61.011719 285.679688 58.230469 293.78125 C 55.25 302.46875 50.808594 310.648438 45.160156 317.882812 C 40.246094 324.175781 34.414062 329.761719 30.0625 336.453125 C 25.714844 343.144531 22.90625 351.425781 24.976562 359.136719 C 25.019531 359.296875 27.332031 358.816406 27.332031 358.984375 C 35.472656 359.507812 43.511719 358.492188 51.644531 357.875 C 60.542969 357.199219 69.472656 357.144531 78.394531 357.105469 C 166.5625 356.699219 254.738281 357.75 342.867188 360.253906 C 344.457031 352.164062 341.96875 344.582031 337.359375 337.75 " fill-opacity="1" fill-rule="nonzero"/><path fill="#fbdb60" d="M 331.03125 285.921875 C 328.855469 291.441406 326.179688 296.851562 322.28125 301.328125 C 318.675781 305.46875 314.121094 308.6875 309.390625 311.488281 C 280.363281 328.660156 241.707031 329.96875 213.246094 311.871094 C 208.699219 308.980469 204.402344 305.613281 201.007812 301.433594 C 192.449219 290.910156 190.539062 276.640625 188.949219 263.171875 C 187.136719 247.75 185.320312 232.328125 183.503906 216.910156 C 182.628906 209.476562 181.753906 201.902344 183.152344 194.550781 C 183.453125 192.988281 183.890625 191.371094 184.988281 190.222656 C 186.160156 189.003906 187.878906 188.511719 189.515625 188.09375 C 210.683594 182.710938 231.027344 184.074219 252.375 183.070312 C 251.726562 191.234375 250.808594 199.726562 252.828125 207.367188 C 253.261719 209.007812 254.816406 209.453125 256.511719 209.445312 C 258.207031 209.433594 260.539062 208.707031 260.535156 207.011719 C 260.507812 198.910156 260.558594 190.808594 260.683594 182.703125 L 269.09375 182.496094 C 288.851562 182.230469 308.625 183.457031 328.195312 186.167969 C 332.304688 186.742188 337.054688 187.84375 338.765625 191.625 C 339.421875 193.070312 339.503906 194.703125 339.574219 196.292969 C 340.929688 226.511719 342.113281 257.777344 331.03125 285.921875 " fill-opacity="1" fill-rule="nonzero"/><g clip-path="url(#321cf0bad2)"><path fill="#fbd1d8" d="M 351.34375 355.601562 C 263.210938 353.097656 175.039062 352.046875 86.871094 352.453125 C 77.949219 352.496094 69.019531 352.550781 60.121094 353.222656 C 51.988281 353.84375 43.949219 354.855469 35.808594 354.335938 C 35.808594 354.164062 33.496094 354.648438 33.453125 354.484375 C 31.386719 346.773438 34.1875 338.496094 38.539062 331.804688 C 42.894531 325.109375 48.71875 319.523438 53.632812 313.234375 C 59.289062 305.996094 63.722656 297.816406 66.707031 289.132812 C 69.488281 281.03125 70.992188 272.550781 72.488281 264.117188 C 79.859375 222.574219 87.226562 181.035156 94.597656 139.492188 C 95.441406 134.726562 97.980469 131.101562 95.703125 126.832031 C 93.265625 122.25 88.226562 119.636719 83.210938 118.320312 C 78.195312 117 72.949219 116.695312 67.960938 115.273438 C 61.96875 113.566406 55.765625 110.855469 52.09375 105.816406 C 41.238281 90.917969 36.621094 71.1875 41.511719 53.414062 C 46.394531 35.640625 61.339844 20.566406 79.460938 17.191406 C 100.605469 13.253906 122.535156 15.414062 144.035156 14.957031 C 152.007812 14.785156 159.960938 14.113281 167.929688 13.917969 C 195.0625 13.261719 217.738281 13.101562 244.863281 13.761719 C 257.90625 14.078125 267.109375 15.433594 275.636719 18.554688 C 289.125 23.492188 296.722656 32.042969 302.855469 41.53125 C 305.3125 45.335938 306.648438 49.699219 307.515625 54.144531 C 308.320312 58.269531 309.125 62.390625 309.925781 66.519531 C 310.597656 69.964844 311.269531 73.417969 311.703125 76.902344 C 312.28125 81.554688 312.429688 86.246094 312.574219 90.929688 C 313 104.667969 312.9375 117.816406 313.363281 131.554688 C 282.453125 129.8125 251.417969 130.246094 220.566406 132.839844 C 220.367188 129.511719 219.757812 126.015625 220.054688 122.695312 C 207.28125 121.726562 194.382812 122.332031 181.753906 124.492188 C 175 125.648438 168.191406 127.300781 162.351562 130.882812 C 156.511719 134.46875 151.554688 139.84375 150.855469 146.65625 C 148.324219 171.308594 146.898438 196.246094 150.074219 220.816406 C 153.253906 245.386719 161.257812 269.730469 176.121094 289.554688 C 182.34375 297.863281 190.519531 304.183594 198.988281 310.183594 C 204.402344 314.027344 211.222656 314.6875 217.988281 314.644531 C 244.101562 328.796875 277.34375 327.917969 303.996094 314.4375 C 309.378906 314.863281 316.824219 315.777344 322.019531 317.234375 C 331.398438 319.867188 340.390625 325.019531 345.835938 333.09375 C 350.445312 339.933594 352.933594 347.515625 351.34375 355.601562 " fill-opacity="1" fill-rule="nonzero"/></g><g clip-path="url(#61ae472d4b)"><path fill="#fe6348" d="M 342 359.1875 C 337.941406 359.074219 333.871094 358.976562 329.808594 358.867188 C 328.609375 349.070312 327.753906 339.125 327.257812 329.265625 C 331.035156 331.832031 334.175781 334.890625 336.496094 338.332031 C 341.234375 345.359375 343.085938 352.371094 342 359.1875 Z M 95.945312 356.019531 L 96.296875 334.082031 C 105.039062 333.042969 114.007812 331.996094 122.847656 331.210938 C 128.84375 330.679688 134.882812 330.273438 140.929688 329.933594 C 141.640625 338.617188 142.402344 347.316406 143.210938 356.03125 C 127.429688 355.976562 111.675781 355.980469 95.945312 356.019531 Z M 78.390625 356.0625 C 72.683594 356.085938 66.449219 356.121094 60.132812 356.363281 C 59.957031 350.371094 59.808594 344.246094 59.6875 337.957031 C 71.152344 337.074219 82.5625 335.71875 93.769531 334.382812 C 93.914062 334.367188 94.0625 334.347656 94.203125 334.332031 L 93.859375 356.023438 C 88.703125 356.039062 83.539062 356.039062 78.390625 356.0625 Z M 51.566406 356.835938 C 49.875 356.964844 48.183594 357.109375 46.496094 357.257812 C 40.308594 357.789062 33.914062 358.34375 27.609375 357.960938 C 27.269531 357.859375 26.820312 357.917969 26.03125 358.023438 C 25.960938 358.035156 25.875 358.046875 25.785156 358.058594 C 24.148438 350.671875 27.167969 343.433594 29.804688 338.867188 C 31.882812 338.925781 33.960938 338.953125 36.042969 338.953125 C 43.226562 338.953125 50.421875 338.636719 57.609375 338.117188 C 57.726562 344.378906 57.875 350.476562 58.050781 356.449219 C 55.886719 356.546875 53.722656 356.671875 51.566406 356.835938 Z M 39.996094 325.625 C 42 323.335938 44.070312 320.96875 45.980469 318.523438 C 50.574219 312.644531 54.324219 306.214844 57.195312 299.363281 C 57.234375 312.292969 57.355469 324.441406 57.566406 336.03125 C 48.734375 336.667969 39.878906 337 31.082031 336.808594 C 33.691406 332.835938 36.894531 329.171875 39.996094 325.625 Z M 65.039062 268.949219 L 68.199219 251.148438 C 69.4375 251.179688 70.679688 251.199219 71.921875 251.199219 C 78.789062 251.199219 85.664062 250.757812 92.351562 250.328125 L 95.335938 250.132812 C 95.316406 264.472656 95.09375 278.796875 94.867188 292.816406 C 82.976562 293.363281 71.101562 293.796875 59.269531 294.105469 C 59.269531 294.050781 59.269531 293.996094 59.269531 293.945312 C 62.046875 285.800781 63.570312 277.234375 65.039062 268.949219 Z M 87.144531 144.324219 C 87.378906 143.003906 87.753906 141.757812 88.117188 140.554688 C 89.070312 137.394531 89.96875 134.40625 88.148438 130.992188 C 86.976562 128.792969 85.292969 127.082031 83.414062 125.738281 C 85.625 125.503906 87.84375 125.285156 90.03125 125.070312 C 90.261719 128.714844 90.492188 132.351562 90.722656 135.976562 C 91.261719 144.378906 91.796875 152.863281 92.308594 161.375 C 89.554688 161.488281 86.804688 161.605469 84.0625 161.714844 Z M 67.640625 120.519531 C 65.03125 120.09375 62.328125 119.652344 59.773438 118.925781 C 59.054688 118.71875 58.363281 118.503906 57.691406 118.28125 C 56.777344 105.863281 56 93.367188 55.347656 80.851562 C 65.980469 79.375 76.640625 77.996094 87.316406 76.714844 C 88.011719 92.164062 88.9375 107.652344 89.898438 122.988281 C 86.777344 123.292969 83.589844 123.613281 80.445312 123.96875 C 78.585938 123.046875 76.6875 122.40625 75 121.960938 C 72.566406 121.324219 70.066406 120.914062 67.640625 120.519531 Z M 44.460938 109.855469 C 38.742188 102.003906 34.933594 93.128906 33.199219 84.070312 C 39.878906 83.054688 46.574219 82.082031 53.273438 81.140625 C 53.914062 93.304688 54.667969 105.449219 55.546875 117.523438 C 50.429688 115.5625 46.777344 113.03125 44.460938 109.855469 Z M 34.039062 58.339844 C 35.273438 53.839844 37.136719 49.574219 39.5 45.65625 C 43.554688 44.992188 47.628906 44.390625 51.71875 43.835938 C 52.082031 55.554688 52.570312 67.308594 53.167969 79.054688 C 46.382812 80.003906 39.605469 80.988281 32.839844 82.015625 C 31.589844 74.03125 31.945312 65.949219 34.039062 58.339844 Z M 51.390625 32.097656 C 51.46875 35.308594 51.550781 38.523438 51.652344 41.742188 C 48.09375 42.222656 44.546875 42.742188 41.015625 43.304688 C 43.917969 39.039062 47.433594 35.25 51.390625 32.097656 Z M 71.179688 22.867188 C 76.09375 21.953125 81.085938 21.375 86.109375 21.015625 C 86.0625 26.777344 86.082031 32.578125 86.15625 38.410156 C 83.175781 38.59375 80.1875 38.789062 77.222656 39.019531 C 69.40625 39.625 61.546875 40.449219 53.722656 41.464844 C 53.617188 37.824219 53.519531 34.1875 53.433594 30.554688 C 58.777344 26.738281 64.816406 24.050781 71.179688 22.867188 Z M 116.074219 20.589844 C 122.476562 20.6875 129.101562 20.789062 135.582031 20.648438 C 135.746094 20.644531 135.90625 20.636719 136.066406 20.636719 C 135.808594 25.757812 135.570312 30.875 135.347656 35.984375 L 104.878906 37.425781 C 99.410156 37.6875 93.828125 37.957031 88.238281 38.285156 C 88.167969 32.445312 88.148438 26.640625 88.195312 20.871094 C 97.496094 20.3125 106.882812 20.449219 116.074219 20.589844 Z M 147.824219 20.121094 C 151.644531 19.917969 155.597656 19.703125 159.480469 19.609375 C 167.261719 19.421875 174.527344 19.28125 181.472656 19.183594 C 181.140625 24.007812 180.847656 28.882812 180.585938 33.839844 L 137.433594 35.882812 C 137.660156 30.785156 137.898438 25.683594 138.15625 20.574219 C 141.402344 20.464844 144.65625 20.292969 147.824219 20.121094 Z M 234.882812 19.417969 C 235.101562 23.363281 235.296875 27.304688 235.464844 31.238281 L 182.675781 33.738281 C 182.9375 28.808594 183.230469 23.957031 183.5625 19.15625 C 201.699219 18.929688 217.703125 19.019531 234.882812 19.417969 Z M 276.980469 29.269531 L 237.546875 31.136719 C 237.382812 27.253906 237.1875 23.367188 236.972656 19.472656 C 249.792969 19.820312 258.75 21.234375 266.804688 24.183594 C 270.675781 25.601562 274.027344 27.339844 276.980469 29.269531 Z M 298.015625 58.992188 L 298.566406 61.8125 C 294.054688 61.816406 289.539062 61.84375 285.023438 61.882812 L 286.339844 37.265625 C 289.175781 40.375 291.484375 43.621094 293.503906 46.746094 C 295.582031 49.964844 297.015625 53.855469 298.015625 58.992188 Z M 302.195312 81.683594 C 302.765625 86.296875 302.914062 91.035156 303.054688 95.613281 C 303.144531 98.503906 303.210938 101.382812 303.265625 104.246094 C 296.652344 104.917969 289.761719 105.601562 282.667969 106.261719 C 283.234375 95.355469 283.8125 84.484375 284.386719 73.800781 L 284.910156 63.964844 C 289.597656 63.925781 294.289062 63.898438 298.972656 63.898438 L 300.429688 71.367188 C 301.085938 74.742188 301.769531 78.230469 302.195312 81.683594 Z M 281.253906 134.257812 C 281.363281 132.003906 281.476562 129.75 281.585938 127.488281 L 300.144531 127.953125 L 300.199219 125.871094 L 281.691406 125.40625 C 281.972656 119.730469 282.261719 114.046875 282.554688 108.363281 C 289.707031 107.699219 296.648438 107.011719 303.308594 106.335938 C 303.363281 109.5625 303.410156 112.761719 303.449219 115.90625 C 303.535156 122.15625 303.625 128.605469 303.8125 135.097656 C 296.3125 134.691406 288.789062 134.410156 281.253906 134.257812 Z M 288.425781 143.277344 C 286.539062 144.78125 283.785156 144.84375 280.894531 144.773438 L 238.464844 143.722656 C 234.535156 143.625 230.476562 143.523438 226.625 142.644531 C 225.679688 142.429688 224.925781 142.195312 224.332031 141.765625 C 223.195312 140.941406 222.710938 139.394531 222.394531 137.753906 C 245.289062 136.191406 268.386719 135.8125 291.332031 136.628906 C 290.859375 139.386719 290.179688 141.882812 288.425781 143.277344 Z M 259.492188 206.148438 L 253.644531 206.304688 C 252.074219 199.632812 252.671875 192.234375 253.261719 185.0625 C 253.492188 182.226562 253.734375 179.296875 253.828125 176.5 C 253.964844 172.277344 253.742188 167.996094 253.527344 163.855469 C 253.226562 158.03125 252.921875 152.015625 253.640625 146.179688 L 260.722656 146.359375 C 259.847656 166.199219 259.433594 186.304688 259.492188 206.148438 Z M 319.578125 191.851562 C 323.570312 192.40625 327.855469 193.417969 329.339844 196.703125 C 329.921875 197.988281 329.992188 199.515625 330.058594 200.992188 C 331.292969 228.609375 332.691406 259.796875 322.578125 287.566406 C 317.363281 285.867188 314.339844 280.457031 312.835938 276.746094 C 321.089844 263.816406 324.140625 247.871094 321.214844 232.800781 C 320.703125 230.167969 319.261719 225.703125 315.355469 225.339844 C 313.863281 225.195312 311.738281 225.636719 310.113281 228.535156 C 308.882812 230.738281 308.480469 233.378906 308.355469 234.761719 C 307.15625 247.539062 305.796875 262.023438 310.070312 275.242188 C 310.210938 275.671875 310.355469 276.09375 310.503906 276.507812 C 310.480469 276.539062 310.460938 276.574219 310.4375 276.605469 C 306.273438 282.84375 298.816406 289.210938 291.5 286.613281 C 288.082031 285.398438 285.363281 282.410156 283.273438 277.523438 C 285.972656 272.523438 287.742188 266.035156 288.550781 258.09375 C 289.402344 249.800781 289.5625 241.375 289.035156 233.046875 C 288.871094 230.492188 288.578125 227.820312 286.988281 225.707031 C 285.984375 224.382812 284.34375 223.457031 282.699219 223.296875 C 281.363281 223.164062 280.140625 223.539062 279.234375 224.347656 C 277.953125 225.492188 277.554688 227.203125 277.28125 228.714844 C 274.617188 243.5 275.421875 258.9375 279.601562 273.363281 C 280.023438 274.800781 280.472656 276.140625 280.964844 277.382812 C 278.722656 281.210938 275.859375 284 272.386719 285.722656 C 265.335938 289.222656 255.6875 287.589844 248.925781 281.742188 C 247.292969 280.332031 245.804688 278.6875 244.472656 276.839844 C 249.324219 262.441406 250.902344 247 249.023438 231.90625 C 248.351562 226.484375 245.933594 223.175781 242.554688 223.050781 C 242.488281 223.046875 242.414062 223.046875 242.34375 223.046875 C 238 223.046875 236.03125 228.125 235.640625 232.933594 C 234.929688 241.660156 234.195312 250.679688 235.570312 259.558594 C 236.613281 266.285156 238.890625 272.308594 242.15625 277.164062 C 241.789062 278.230469 241.394531 279.289062 240.988281 280.34375 C 239.273438 284.757812 236.714844 290.15625 232.078125 292.738281 C 227.324219 295.386719 220.609375 294.65625 215.375 290.925781 C 211.152344 287.914062 207.671875 283.125 204.742188 276.28125 C 204.242188 275.117188 203.777344 273.945312 203.34375 272.761719 C 205.191406 268.195312 206.820312 263.511719 207.945312 258.6875 C 210.335938 248.417969 209.964844 238.796875 206.882812 230.855469 C 206.363281 229.519531 205.554688 227.921875 203.882812 227.4375 C 202.980469 227.171875 202.070312 227.296875 201.253906 227.789062 C 199.644531 228.761719 198.6875 230.980469 198.328125 232.734375 C 195.609375 245.957031 196.613281 259.976562 201.113281 272.710938 C 199.566406 276.480469 197.871094 280.1875 196.207031 283.835938 C 194.054688 288.539062 191.589844 293.242188 187.171875 294.691406 C 183.660156 285.914062 182.496094 276.09375 181.511719 267.699219 L 176.0625 221.441406 C 175.207031 214.171875 174.320312 206.65625 175.703125 199.394531 C 175.96875 197.988281 176.34375 196.558594 177.265625 195.59375 C 178.21875 194.601562 179.714844 194.15625 181.300781 193.753906 C 196.863281 189.796875 211.742188 189.523438 227.492188 189.230469 C 233.347656 189.121094 239.398438 189.011719 245.464844 188.691406 C 247.269531 188.597656 249.09375 188.519531 250.90625 188.445312 C 250.457031 194.496094 250.242188 200.617188 251.515625 206.359375 L 235.109375 206.789062 C 230.777344 206.90625 226.292969 207.023438 221.890625 206.804688 C 217.585938 206.585938 213.222656 206.039062 209.007812 205.507812 L 197.25 204.03125 C 190.59375 203.191406 184.296875 202.078125 180.4375 197.699219 L 178.875 199.078125 C 183.214844 204.003906 189.917969 205.210938 196.988281 206.097656 L 208.746094 207.578125 C 213.003906 208.109375 217.402344 208.664062 221.785156 208.886719 C 223.632812 208.980469 225.488281 209.011719 227.335938 209.011719 C 229.972656 209.011719 232.597656 208.941406 235.167969 208.871094 L 268.089844 208.007812 C 285.640625 207.542969 303.789062 207.066406 321.472656 204.242188 C 322.402344 204.089844 323.671875 203.886719 324.667969 203.074219 C 325.792969 202.160156 326.335938 200.328125 325.347656 199.066406 L 323.707031 200.351562 C 323.898438 200.59375 323.714844 201.164062 323.351562 201.460938 C 322.832031 201.882812 322.046875 202.039062 321.144531 202.183594 C 303.597656 204.984375 285.515625 205.464844 268.035156 205.925781 L 261.574219 206.09375 C 261.558594 200.144531 261.585938 194.171875 261.65625 188.1875 C 280.984375 187.972656 300.46875 189.199219 319.578125 191.851562 Z M 310.425781 234.953125 C 310.621094 232.886719 311.171875 230.917969 311.933594 229.554688 C 313.011719 227.632812 314.1875 227.394531 314.832031 227.394531 C 314.96875 227.394531 315.082031 227.402344 315.164062 227.410156 C 317.8125 227.660156 318.84375 231.539062 319.167969 233.199219 C 321.890625 247.214844 319.257812 262.011719 311.9375 274.234375 C 307.941406 261.519531 309.261719 247.414062 310.425781 234.953125 Z M 281.605469 272.78125 C 277.511719 258.664062 276.726562 243.554688 279.332031 229.082031 C 279.550781 227.859375 279.832031 226.609375 280.621094 225.902344 C 281.109375 225.46875 281.695312 225.355469 282.179688 225.355469 C 282.292969 225.355469 282.394531 225.359375 282.492188 225.367188 C 283.558594 225.472656 284.671875 226.101562 285.320312 226.960938 C 286.566406 228.613281 286.808594 230.9375 286.953125 233.179688 C 287.472656 241.390625 287.316406 249.703125 286.476562 257.882812 C 285.78125 264.699219 284.375 270.378906 282.269531 274.890625 C 282.039062 274.214844 281.816406 273.515625 281.605469 272.78125 Z M 237.632812 259.238281 C 236.292969 250.601562 237.015625 241.707031 237.714844 233.101562 C 238.019531 229.402344 239.414062 225.128906 242.363281 225.128906 C 242.402344 225.128906 242.441406 225.132812 242.476562 225.132812 C 245.152344 225.230469 246.542969 228.828125 246.957031 232.160156 C 248.726562 246.40625 247.359375 260.964844 243.007812 274.625 C 240.378906 270.277344 238.53125 265.039062 237.632812 259.238281 Z M 200.367188 233.152344 C 200.695312 231.542969 201.503906 230.074219 202.328125 229.574219 C 202.539062 229.449219 202.742188 229.386719 202.957031 229.386719 C 203.070312 229.386719 203.183594 229.402344 203.304688 229.4375 C 204.105469 229.671875 204.621094 230.789062 204.941406 231.609375 C 207.875 239.15625 208.210938 248.355469 205.914062 258.214844 C 205.003906 262.125 203.746094 265.953125 202.304688 269.710938 C 198.59375 257.957031 197.890625 245.214844 200.367188 233.152344 Z M 313.019531 305.292969 C 309.988281 308.773438 305.972656 311.933594 300.386719 315.242188 C 270.738281 332.78125 232.535156 332.941406 205.328125 315.640625 C 200.195312 312.375 196.273438 309.035156 193.339844 305.425781 C 191.148438 302.730469 189.398438 299.753906 187.988281 296.609375 C 193.09375 294.839844 195.886719 289.550781 198.101562 284.699219 C 199.476562 281.695312 200.867188 278.648438 202.1875 275.554688 C 202.390625 276.070312 202.609375 276.585938 202.824219 277.097656 C 205.910156 284.304688 209.621094 289.382812 214.164062 292.625 C 220.042969 296.808594 227.652344 297.589844 233.089844 294.5625 C 238.308594 291.65625 241.089844 285.839844 242.929688 281.097656 C 243.171875 280.46875 243.410156 279.835938 243.644531 279.199219 C 244.84375 280.722656 246.152344 282.101562 247.5625 283.316406 C 254.941406 289.699219 265.53125 291.453125 273.3125 287.589844 C 276.761719 285.878906 279.652344 283.242188 281.976562 279.699219 C 284.238281 284.359375 287.15625 287.28125 290.804688 288.578125 C 298.816406 291.414062 306.742188 285.304688 311.441406 278.8125 C 313.933594 284.304688 317.585938 288.074219 321.84375 289.507812 C 321.753906 289.734375 321.671875 289.964844 321.585938 290.191406 C 319 296.753906 316.277344 301.550781 313.019531 305.292969 Z M 235.058594 329.152344 C 240.460938 330.101562 245.980469 330.582031 251.542969 330.582031 C 259.804688 330.582031 268.144531 329.523438 276.273438 327.429688 C 276.636719 337.625 277.109375 347.773438 277.679688 357.628906 C 263.941406 357.351562 250.1875 357.117188 236.429688 356.910156 C 235.855469 347.972656 235.398438 338.648438 235.058594 329.152344 Z M 183.875 328.402344 C 197.539062 328.058594 211.652344 327.703125 225.511719 326.9375 C 227.960938 327.648438 230.445312 328.261719 232.960938 328.765625 C 233.296875 338.382812 233.761719 347.832031 234.339844 356.882812 C 217.71875 356.632812 201.089844 356.4375 184.46875 356.292969 C 183.5625 347.085938 183.617188 337.671875 183.875 328.402344 Z M 181.789062 328.457031 C 181.53125 337.679688 181.472656 347.058594 182.367188 356.273438 C 170.007812 356.167969 157.648438 356.085938 145.304688 356.042969 C 144.492188 347.28125 143.730469 338.542969 143.011719 329.820312 C 156.007812 329.128906 169.027344 328.777344 181.789062 328.457031 Z M 140.214844 292.257812 C 148.066406 291.703125 155.898438 291.101562 163.703125 290.445312 C 164.714844 291.9375 165.742188 293.40625 166.8125 294.832031 C 171.324219 300.855469 176.847656 305.824219 182.34375 310.109375 C 182.289062 312.378906 182.226562 314.644531 182.15625 316.914062 C 182.113281 318.320312 182.066406 319.730469 182.015625 321.140625 C 181.960938 322.875 181.902344 324.617188 181.847656 326.367188 C 169.011719 326.691406 155.917969 327.046875 142.839844 327.742188 C 141.875 315.890625 141 304.0625 140.214844 292.257812 Z M 135.597656 247.542969 C 136.265625 261.785156 137.070312 276.042969 138.003906 290.332031 C 124.347656 291.285156 110.644531 292.082031 96.953125 292.726562 C 97.175781 278.691406 97.398438 264.355469 97.421875 250 Z M 97.242188 226.5 C 97.085938 218.109375 96.808594 209.613281 96.457031 201.070312 L 133.824219 199.0625 C 134.226562 214.523438 134.785156 229.980469 135.5 245.460938 L 97.421875 247.914062 C 97.421875 240.765625 97.371094 233.613281 97.242188 226.5 Z M 76.894531 202.121094 L 94.375 201.179688 C 94.726562 209.699219 95.003906 218.175781 95.15625 226.539062 C 95.289062 233.683594 95.335938 240.863281 95.335938 248.046875 L 92.21875 248.25 C 84.472656 248.746094 76.472656 249.25 68.566406 249.070312 Z M 133.160156 161.527344 C 133.277344 173.351562 133.476562 185.164062 133.773438 196.980469 L 96.367188 198.988281 C 95.863281 187.152344 95.222656 175.242188 94.515625 163.371094 C 107.378906 162.828125 120.304688 162.207031 133.160156 161.527344 Z M 134.039062 71.710938 C 133.601562 86.636719 133.3125 101.523438 133.167969 116.382812 C 131.847656 116.652344 130.539062 116.921875 129.238281 117.1875 C 123.761719 118.316406 118.097656 119.484375 112.492188 120.367188 C 105.71875 121.433594 98.746094 122.125 91.976562 122.785156 C 91.011719 107.429688 90.085938 91.925781 89.390625 76.460938 C 104.242188 74.691406 119.128906 73.105469 134.039062 71.710938 Z M 179.4375 65.945312 C 165.007812 66.933594 150.589844 68.089844 136.191406 69.417969 C 136.507812 58.957031 136.890625 48.480469 137.34375 37.976562 L 180.476562 35.929688 C 180 45.550781 179.652344 55.492188 179.4375 65.945312 Z M 236.378906 62.980469 C 218.089844 63.640625 199.800781 64.582031 181.523438 65.804688 C 181.742188 55.363281 182.089844 45.4375 182.570312 35.832031 L 235.554688 33.320312 C 235.964844 43.3125 236.230469 53.242188 236.378906 62.980469 Z M 245.75 124.5 C 243.300781 124.4375 240.761719 124.378906 238.179688 124.378906 C 238.265625 120.257812 238.34375 116.007812 238.414062 111.648438 C 252.796875 110.910156 266.976562 109.789062 280.460938 108.558594 C 280.171875 114.15625 279.886719 119.761719 279.605469 125.351562 Z M 213.054688 136.363281 C 213 135.671875 212.933594 134.972656 212.867188 134.289062 C 212.648438 132.003906 212.417969 129.644531 212.617188 127.445312 L 212.710938 126.390625 L 211.660156 126.308594 C 201.628906 125.550781 191.535156 125.765625 181.546875 126.921875 C 181.464844 122.1875 181.398438 117.570312 181.347656 113.066406 C 188.601562 112.824219 195.832031 112.734375 202.96875 112.644531 C 208.699219 112.574219 214.625 112.503906 220.449219 112.351562 C 225.75 112.214844 231.046875 112.007812 236.324219 111.753906 C 236.257812 116.082031 236.179688 120.300781 236.097656 124.394531 C 229.667969 124.5 223.035156 125.101562 216.839844 127.230469 L 217.511719 129.203125 C 223.480469 127.152344 229.761719 126.566406 236.054688 126.472656 C 235.988281 129.347656 235.925781 132.144531 235.855469 134.882812 C 228.238281 135.246094 220.632812 135.742188 213.054688 136.363281 Z M 144.664062 246.957031 C 148.640625 262.4375 154.617188 276.472656 162.386719 288.460938 C 154.972656 289.078125 147.535156 289.652344 140.082031 290.179688 C 139.148438 275.894531 138.347656 261.644531 137.679688 247.410156 Z M 138.757812 198.800781 C 138.875 207.632812 139.40625 216.621094 140.5625 225.597656 C 141.425781 232.238281 142.621094 238.683594 144.136719 244.902344 L 137.582031 245.328125 C 136.867188 229.855469 136.304688 214.402344 135.90625 198.953125 Z M 140.390625 161.144531 C 139.398438 172.367188 138.664062 184.367188 138.734375 196.710938 L 135.855469 196.867188 C 135.558594 185.054688 135.359375 173.238281 135.242188 161.417969 C 136.960938 161.328125 138.679688 161.238281 140.390625 161.144531 Z M 179.242188 111.058594 C 167.769531 111.488281 156.242188 112.324219 144.917969 114.179688 C 141.695312 114.707031 138.457031 115.328125 135.253906 115.964844 C 135.402344 101.179688 135.695312 86.367188 136.128906 71.519531 C 150.53125 70.183594 164.957031 69.023438 179.394531 68.039062 C 179.140625 81.382812 179.09375 95.582031 179.242188 111.058594 Z M 236.359375 109.667969 C 231.050781 109.925781 225.722656 110.132812 220.394531 110.269531 C 214.585938 110.421875 208.667969 110.492188 202.945312 110.5625 C 195.808594 110.652344 188.582031 110.742188 181.328125 110.980469 C 181.175781 95.476562 181.222656 81.253906 181.480469 67.894531 C 199.78125 66.671875 218.097656 65.726562 236.410156 65.0625 C 236.625 80.648438 236.554688 95.703125 236.359375 109.667969 Z M 135.234375 118.09375 C 138.5625 117.429688 141.917969 116.78125 145.257812 116.234375 C 156.457031 114.40625 167.878906 113.570312 179.265625 113.140625 C 179.316406 117.707031 179.382812 122.382812 179.464844 127.179688 C 177.339844 127.453125 175.21875 127.757812 173.101562 128.117188 C 166.839844 129.1875 159.59375 130.800781 153.332031 134.648438 C 146.25 138.996094 141.992188 144.875 141.34375 151.203125 C 141.082031 153.765625 140.824219 156.382812 140.578125 159.050781 C 138.796875 159.148438 137.007812 159.238281 135.222656 159.335938 C 135.105469 145.601562 135.109375 131.859375 135.234375 118.09375 Z M 184.097656 321.210938 C 184.148438 319.796875 184.195312 318.386719 184.238281 316.976562 C 184.292969 315.210938 184.339844 313.441406 184.386719 311.671875 C 186.257812 313.078125 188.113281 314.414062 189.910156 315.6875 C 195.710938 319.800781 202.921875 320.363281 209.246094 320.339844 C 212.695312 322.191406 216.289062 323.78125 219.988281 325.132812 C 207.945312 325.710938 195.769531 326.019531 183.933594 326.316406 C 183.988281 324.605469 184.042969 322.902344 184.097656 321.210938 Z M 251.445312 163.964844 C 251.660156 168.058594 251.882812 172.292969 251.746094 176.429688 C 251.652344 179.175781 251.425781 181.953125 251.183594 184.894531 C 251.144531 185.378906 251.105469 185.867188 251.066406 186.355469 C 249.164062 186.429688 247.25 186.511719 245.359375 186.609375 C 239.328125 186.925781 233.289062 187.039062 227.457031 187.144531 C 211.582031 187.441406 196.585938 187.71875 180.785156 191.734375 C 178.898438 192.214844 177.09375 192.761719 175.757812 194.15625 C 174.460938 195.511719 173.96875 197.367188 173.65625 199.003906 C 172.214844 206.582031 173.117188 214.257812 173.992188 221.6875 L 179.441406 267.945312 C 180.894531 280.285156 182.703125 295.648438 191.722656 306.742188 C 194.800781 310.527344 198.882812 314.015625 204.210938 317.398438 C 204.632812 317.667969 205.0625 317.917969 205.488281 318.175781 C 200.527344 317.929688 195.355469 316.992188 191.113281 313.988281 C 181.714844 307.324219 174.269531 301.304688 168.480469 293.582031 C 155.019531 275.632812 146.082031 252.03125 142.632812 225.332031 C 139.289062 199.476562 141.152344 173.457031 143.417969 151.414062 C 144.199219 143.769531 150.648438 138.742188 154.421875 136.425781 C 160.382812 132.761719 167.386719 131.207031 173.453125 130.171875 C 185.667969 128.082031 198.117188 127.457031 210.476562 128.3125 C 210.398438 130.371094 210.597656 132.460938 210.792969 134.488281 C 210.890625 135.5 210.988281 136.550781 211.050781 137.554688 L 211.113281 138.617188 L 212.179688 138.53125 C 214.882812 138.300781 217.59375 138.097656 220.300781 137.902344 C 220.695312 140.050781 221.320312 142.152344 223.105469 143.453125 C 224.035156 144.125 225.125 144.441406 226.160156 144.675781 C 230.214844 145.605469 234.382812 145.703125 238.414062 145.804688 L 251.546875 146.128906 C 250.839844 152.078125 251.144531 158.117188 251.445312 163.964844 Z M 237.945312 134.792969 C 238.011719 132.082031 238.074219 129.304688 238.136719 126.457031 C 240.664062 126.457031 243.195312 126.519531 245.699219 126.582031 L 279.503906 127.433594 C 279.390625 129.703125 279.28125 131.964844 279.171875 134.226562 C 265.433594 133.988281 251.667969 134.179688 237.945312 134.792969 Z M 280.570312 106.453125 C 267.0625 107.691406 252.851562 108.816406 238.441406 109.558594 C 238.636719 95.605469 238.707031 80.5625 238.492188 64.988281 C 253.277344 64.46875 268.058594 64.132812 282.824219 63.984375 L 282.304688 73.726562 C 281.726562 84.492188 281.140625 95.453125 280.570312 106.453125 Z M 282.933594 61.898438 C 268.125 62.046875 253.292969 62.382812 238.460938 62.902344 C 238.3125 53.160156 238.046875 43.222656 237.636719 33.21875 L 279.761719 31.226562 C 281.433594 32.5 282.957031 33.839844 284.359375 35.222656 Z M 87.222656 74.625 C 76.542969 75.90625 65.882812 77.289062 55.242188 78.761719 C 54.640625 67.023438 54.15625 55.269531 53.796875 43.558594 C 61.648438 42.535156 69.539062 41.707031 77.386719 41.097656 C 80.304688 40.871094 83.242188 40.675781 86.183594 40.496094 C 86.351562 51.792969 86.722656 63.195312 87.222656 74.625 Z M 88.265625 40.371094 C 93.882812 40.042969 99.5 39.769531 105.019531 39.507812 L 135.253906 38.074219 C 134.800781 48.609375 134.417969 59.121094 134.101562 69.613281 C 119.140625 71.011719 104.203125 72.597656 89.300781 74.371094 C 88.800781 62.984375 88.433594 51.625 88.265625 40.371094 Z M 92.804688 135.84375 C 92.570312 132.195312 92.339844 128.535156 92.105469 124.867188 C 98.929688 124.203125 105.960938 123.503906 112.816406 122.425781 C 118.46875 121.539062 124.160156 120.363281 129.660156 119.230469 C 130.8125 118.992188 131.976562 118.753906 133.148438 118.515625 C 133.023438 132.171875 133.023438 145.8125 133.140625 159.445312 C 120.25 160.125 107.292969 160.746094 94.394531 161.289062 C 93.878906 152.761719 93.339844 144.261719 92.804688 135.84375 Z M 83.6875 163.8125 C 86.59375 163.699219 89.515625 163.578125 92.433594 163.457031 C 93.140625 175.335938 93.785156 187.257812 94.285156 199.097656 L 77.269531 200.015625 Z M 94.242188 332.226562 C 94 332.257812 93.761719 332.285156 93.523438 332.3125 C 82.378906 333.644531 71.035156 334.988281 59.648438 335.867188 C 59.421875 323.386719 59.296875 310.246094 59.273438 296.1875 C 71.09375 295.882812 82.957031 295.449219 94.832031 294.902344 Z M 96.921875 294.8125 C 110.667969 294.167969 124.425781 293.367188 138.140625 292.410156 C 138.921875 304.203125 139.792969 316.015625 140.757812 327.855469 C 134.710938 328.195312 128.667969 328.609375 122.664062 329.136719 C 113.886719 329.917969 105 330.949219 96.328125 331.984375 Z M 313.261719 322.886719 C 317.601562 324.105469 321.585938 325.804688 325.105469 327.894531 C 325.582031 338.183594 326.453125 348.574219 327.703125 358.8125 C 311.753906 358.390625 295.777344 358.003906 279.769531 357.675781 C 279.183594 347.625 278.703125 337.277344 278.335938 326.871094 C 284.300781 325.195312 290.136719 322.964844 295.730469 320.152344 C 298.652344 320.390625 307.25 321.199219 313.261719 322.886719 Z M 338.222656 337.164062 C 333.164062 329.660156 324.5 323.878906 313.824219 320.882812 C 309.1875 319.582031 303.238281 318.796875 299.09375 318.371094 C 299.882812 317.933594 300.667969 317.496094 301.445312 317.035156 C 307.234375 313.613281 311.410156 310.316406 314.589844 306.660156 C 318.011719 302.738281 320.847656 297.746094 323.523438 290.953125 C 334.882812 262.125 333.425781 229.597656 332.140625 200.894531 C 332.066406 199.300781 331.988281 197.492188 331.238281 195.84375 C 329.324219 191.609375 324.152344 190.382812 319.863281 189.789062 C 300.667969 187.128906 281.101562 185.890625 261.679688 186.105469 C 261.851562 172.859375 262.226562 159.578125 262.804688 146.410156 L 280.84375 146.855469 C 281.308594 146.867188 281.769531 146.875 282.230469 146.875 C 285.011719 146.875 287.632812 146.574219 289.726562 144.90625 C 292.226562 142.914062 293 139.386719 293.433594 136.703125 C 297.238281 136.847656 301.039062 137.027344 304.828125 137.242188 L 305.964844 137.304688 L 305.929688 136.171875 C 305.714844 129.308594 305.625 122.480469 305.535156 115.878906 C 305.445312 109.265625 305.351562 102.429688 305.136719 95.550781 C 304.996094 90.921875 304.847656 86.136719 304.261719 81.425781 C 303.824219 77.90625 303.140625 74.378906 302.476562 70.96875 L 300.0625 58.597656 C 299.007812 53.1875 297.480469 49.066406 295.253906 45.617188 C 289.714844 37.042969 282.089844 27.5625 267.519531 22.226562 C 259.113281 19.148438 249.808594 17.695312 236.414062 17.371094 C 211.429688 16.765625 189.121094 16.8125 159.429688 17.527344 C 155.515625 17.621094 151.550781 17.835938 147.714844 18.042969 C 143.722656 18.257812 139.59375 18.476562 135.539062 18.566406 C 129.09375 18.703125 122.488281 18.601562 116.105469 18.507812 C 101.148438 18.277344 85.6875 18.046875 70.796875 20.816406 C 52.765625 24.175781 37.183594 39.035156 32.027344 57.789062 C 27.210938 75.3125 31.226562 95.234375 42.777344 111.082031 C 45.972656 115.46875 51.347656 118.6875 59.199219 120.929688 C 61.871094 121.691406 64.636719 122.140625 67.308594 122.578125 C 69.679688 122.964844 72.132812 123.363281 74.472656 123.980469 C 78.492188 125.035156 83.8125 127.28125 86.308594 131.972656 C 87.726562 134.628906 87.015625 136.980469 86.121094 139.953125 C 85.742188 141.21875 85.347656 142.523438 85.09375 143.960938 L 62.988281 268.585938 C 61.523438 276.851562 60.003906 285.398438 57.242188 293.445312 C 54.285156 302.058594 49.945312 310.066406 44.335938 317.242188 C 42.460938 319.640625 40.414062 321.984375 38.429688 324.253906 C 35.222656 327.917969 31.910156 331.707031 29.191406 335.886719 C 26.144531 340.574219 21.410156 349.863281 23.96875 359.40625 C 24.226562 360.371094 25.148438 360.25 26.308594 360.089844 C 26.511719 360.0625 26.777344 360.027344 26.972656 360.007812 L 27.265625 360.027344 C 33.792969 360.445312 40.34375 359.878906 46.675781 359.335938 C 48.355469 359.1875 50.039062 359.042969 51.722656 358.914062 C 60.804688 358.226562 70.152344 358.183594 78.402344 358.144531 C 166.148438 357.746094 255.121094 358.804688 342.839844 361.296875 L 343.71875 361.320312 L 343.890625 360.457031 C 345.390625 352.800781 343.488281 344.96875 338.222656 337.164062 " fill-opacity="1" fill-rule="nonzero"/></g></svg>